# xmcd
#
# Track frame offsets:
#	150
#	19189
#	37301
#	74831
#	91983
#	123999
#	149785
#	166214
#	182682
#	215314
#	241359
#
# Disc length: 3876 seconds
#
# Revision: 1
# Processed by: cddbd v1.5.2PL0 Copyright (c) Steve Scherf et al.
# Submitted via: audiograbber 1.83.01
#
DISCID=a70f220b
DTITLE=Grateful Dead - 69-06-21 Fillmore East, New York NY
DYEAR=1900
DGENRE=
TTITLE0=Old Old House
TTITLE1=Sitting On Top Of The World
TTITLE2=King Bee
TTITLE3=Instrumental Jam
TTITLE4=Hard To Handle
TTITLE5=Cold Rain and Snow
TTITLE6=Me and My Uncle
TTITLE7=Next Time You See Me
TTITLE8=Dire Wolf
TTITLE9=Casey Jones
TTITLE10=Easy Wind
EXTD=
EXTT0=
EXTT1=
EXTT2=
EXTT3=
EXTT4=
EXTT5=
EXTT6=
EXTT7=
EXTT8=
EXTT9=
EXTT10=
PLAYORDER=
